<svg xmlns="http://www.w3.org/2000/svg" height="511pt" version="1.1" viewBox="1 0 511.99999 511" width="511pt">
<g id="surface1">
<path d="M 193.425781 133.527344 L 183.792969 189.695312 C 182.828125 195.324219 185.140625 201.011719 189.761719 204.367188 C 192.375 206.265625 195.46875 207.234375 198.578125 207.234375 C 200.964844 207.234375 203.363281 206.664062 205.558594 205.511719 L 256 178.992188 L 306.441406 205.511719 C 308.636719 206.664062 311.03125 207.234375 313.421875 207.234375 C 313.433594 207.234375 313.449219 207.234375 313.464844 207.234375 C 321.738281 207.222656 328.441406 200.511719 328.441406 192.234375 C 328.441406 191.082031 328.3125 189.960938 328.066406 188.882812 L 318.574219 133.527344 L 359.382812 93.746094 C 363.472656 89.761719 364.945312 83.800781 363.179688 78.371094 C 361.414062 72.941406 356.722656 68.984375 351.070312 68.164062 L 294.675781 59.96875 L 269.453125 8.859375 C 266.925781 3.742188 261.710938 0.5 256 0.5 C 250.292969 0.5 245.078125 3.742188 242.550781 8.859375 L 217.328125 59.964844 L 160.929688 68.160156 C 155.28125 68.984375 150.585938 72.941406 148.824219 78.371094 C 147.058594 83.800781 148.53125 89.761719 152.617188 93.746094 Z M 229.445312 88.523438 C 234.332031 87.8125 238.554688 84.742188 240.738281 80.316406 L 256 49.394531 L 271.261719 80.316406 C 273.449219 84.742188 277.671875 87.8125 282.558594 88.523438 L 316.683594 93.480469 L 291.988281 117.550781 C 288.453125 120.996094 286.839844 125.960938 287.675781 130.824219 L 293.503906 164.8125 L 262.980469 148.765625 C 260.796875 147.617188 258.398438 147.042969 256.003906 147.042969 C 253.605469 147.042969 251.207031 147.617188 249.023438 148.765625 L 218.5 164.8125 L 224.328125 130.828125 C 225.164062 125.960938 223.550781 120.996094 220.015625 117.550781 L 195.320312 93.480469 Z M 229.445312 88.523438 " style=" stroke:none;fill-rule:nonzero;fill:rgb(0%,0%,0%);fill-opacity:1;" />
<path d="M 456.832031 337.898438 L 392.566406 337.898438 C 383.5 337.898438 374.949219 340.109375 367.398438 344 L 367.398438 296.664062 C 367.398438 266.246094 342.652344 241.5 312.234375 241.5 L 199.765625 241.5 C 169.347656 241.5 144.597656 266.246094 144.597656 296.664062 L 144.597656 303.832031 C 137.046875 299.945312 128.496094 297.734375 119.433594 297.734375 L 55.167969 297.734375 C 24.746094 297.730469 0 322.480469 0 352.898438 L 0 497.5 C 0 505.78125 6.714844 512.496094 15 512.496094 L 497 512.496094 C 505.285156 512.496094 512 505.78125 512 497.5 L 512 393.066406 C 512 362.648438 487.253906 337.898438 456.832031 337.898438 Z M 30 352.898438 C 30 339.023438 41.289062 327.730469 55.167969 327.730469 L 119.433594 327.730469 C 133.308594 327.730469 144.597656 339.023438 144.597656 352.898438 L 144.597656 482.5 L 30 482.5 Z M 174.597656 352.898438 L 174.597656 296.664062 C 174.597656 282.789062 185.890625 271.5 199.765625 271.5 L 312.234375 271.5 C 326.109375 271.5 337.398438 282.789062 337.398438 296.664062 L 337.398438 482.5 L 174.597656 482.5 Z M 482 482.5 L 367.398438 482.5 L 367.398438 393.066406 C 367.398438 379.1875 378.6875 367.898438 392.566406 367.898438 L 456.832031 367.898438 C 470.710938 367.898438 482 379.1875 482 393.066406 Z M 482 482.5 " style=" stroke:none;fill-rule:nonzero;fill:rgb(0%,0%,0%);fill-opacity:1;" />
</g>
</svg>